<svg width="44" height="44" viewBox="0 0 44 44" fill="none" xmlns="http://www.w3.org/2000/svg">
<g clip-path="url(#clip0_450_98)">
<path d="M17.865 35.7469C7.99385 35.7425 -0.00439978 27.7365 1.81584e-06 17.8652C0.00440341 7.99395 8.01035 -0.00439983 17.8815 1.81587e-06C27.7526 0.00440347 35.7509 8.01046 35.7465 17.8817C35.7459 19.3854 35.5555 20.8825 35.1798 22.3384C34.974 23.0696 34.2142 23.4955 33.4829 23.2897C32.7743 23.09 32.3484 22.3675 32.5168 21.6506C32.837 20.4143 32.9977 19.1422 32.9955 17.8652C32.9955 9.50867 26.2214 2.73453 17.865 2.73453C9.50855 2.73453 2.73449 9.50867 2.73449 17.8652C2.73449 26.2217 9.50855 32.9959 17.865 32.9959C20.9527 33.0063 23.9678 32.06 26.496 30.2878C27.9776 29.271 29.2591 27.9901 30.2775 26.5095C30.7072 25.8823 31.5638 25.7221 32.1905 26.1519C32.8177 26.5816 32.9779 27.4382 32.5481 28.0649C31.341 29.819 29.8236 31.3376 28.0695 32.5447C25.0797 34.6393 21.515 35.7579 17.865 35.7469Z" fill="#BEBEBE"/>
<path d="M39.7069 44.0001C38.5691 43.9968 37.4781 43.545 36.6709 42.7428L26.3151 32.3868C25.7874 31.8405 25.8023 30.9695 26.3492 30.4419C26.8823 29.9269 27.7274 29.9269 28.26 30.4419L38.6159 40.7979C39.2183 41.4003 40.1949 41.4003 40.7974 40.7979C41.3999 40.1954 41.3999 39.2188 40.7974 38.6163L30.4416 28.2603C29.9139 27.7139 29.9288 26.843 30.4757 26.3153C31.0088 25.8003 31.8539 25.8003 32.3865 26.3153L42.7424 36.6713C44.4188 38.3478 44.4188 41.0658 42.7424 42.7423C41.9374 43.5478 40.8453 44.0001 39.7064 44.0001H39.7069Z" fill="#BEBEBE"/>
<path d="M26.1181 20.6163H9.61208C8.09298 20.6163 6.86108 19.3843 6.86108 17.8652V13.7387C6.86108 12.9788 7.47676 12.3632 8.23658 12.3632H27.4936C28.2534 12.3632 28.8691 12.9788 28.8691 13.7387V17.8652C28.8691 19.3843 27.6372 20.6163 26.1181 20.6163ZM9.61208 15.1142V17.8652H26.1181V15.1142H9.61208Z" fill="#BEBEBE"/>
<path d="M23.3671 28.8694H12.3631C10.0841 28.8694 8.23657 27.0218 8.23657 24.7428V19.2408C8.23657 18.4809 8.85225 17.8652 9.61207 17.8652H26.1181C26.8779 17.8652 27.4936 18.4809 27.4936 19.2408V24.7428C27.4936 27.0218 25.646 28.8694 23.3671 28.8694ZM10.9876 20.6163V24.7428C10.9876 25.5026 11.6032 26.1183 12.3631 26.1183H23.3671C24.1269 26.1183 24.7426 25.5026 24.7426 24.7428V20.6163H10.9876Z" fill="#BEBEBE"/>
<path d="M23.367 15.1142H12.363C11.6032 15.1142 10.9875 14.4985 10.9875 13.7387V10.9876C10.9875 8.70868 12.8351 6.86108 15.114 6.86108H20.616C22.895 6.86108 24.7425 8.70868 24.7425 10.9876V13.7387C24.7425 14.4985 24.1269 15.1142 23.367 15.1142ZM13.7385 12.3631H21.9915V10.9876C21.9915 10.2278 21.3759 9.61212 20.616 9.61212H15.114C14.3542 9.61212 13.7385 10.2278 13.7385 10.9876V12.3631Z" fill="#BEBEBE"/>
</g>
<defs>
<clipPath id="clip0_450_98">
<rect width="44" height="44" fill="white"/>
</clipPath>
</defs>
</svg>
