<svg width="38" height="47" viewBox="0 0 38 47" fill="none" xmlns="http://www.w3.org/2000/svg">
<g clip-path="url(#clip0_450_116)">
<path d="M34.2002 47H27.1432C26.2436 47 25.5146 46.2662 25.5146 45.3605C25.5146 44.4548 26.2436 43.721 27.1432 43.721H34.2002C34.4992 43.721 34.7428 43.4757 34.7428 43.1747V33.3375C34.7428 32.4319 35.4718 31.698 36.3714 31.698C37.271 31.698 38 32.4319 38 33.3375V43.1747C38 45.2844 36.2952 47 34.2002 47Z" fill="#105099"/>
<path d="M10.3141 47H3.7998C1.7048 47 0 45.2837 0 43.1747V3.82535C0 1.71626 1.7048 0 3.7998 0H34.2002C36.2959 0 38 1.71626 38 3.82535V14.7557C38 15.6614 37.271 16.3953 36.3714 16.3953C35.4718 16.3953 34.7428 15.6614 34.7428 14.7557V3.82535C34.7428 3.52367 34.4992 3.27905 34.2002 3.27905H3.7998C3.5008 3.27905 3.25716 3.52433 3.25716 3.82535V43.174C3.25716 43.475 3.5008 43.7203 3.7998 43.7203H10.3141C11.2138 43.7203 11.9427 44.4541 11.9427 45.3598C11.9427 46.2655 11.2138 46.9993 10.3141 46.9993V47Z" fill="#105099"/>
<path d="M25.5147 16.3953H10.3149C9.41523 16.3953 8.68628 15.6614 8.68628 14.7557C8.68628 13.8501 9.41523 13.1162 10.3149 13.1162H25.5147C26.4144 13.1162 27.1433 13.8501 27.1433 14.7557C27.1433 15.6614 26.4144 16.3953 25.5147 16.3953Z" fill="#105099"/>
<path d="M17.9136 46.9999C17.5534 46.9999 17.1912 46.8806 16.8896 46.6347C16.1906 46.0648 16.0824 45.0325 16.6485 44.3288L35.1056 21.3754C35.6717 20.6718 36.697 20.5629 37.396 21.1328C38.095 21.7027 38.2031 22.7349 37.637 23.4386L19.18 46.392C18.8582 46.7921 18.3879 46.9999 17.913 46.9999H17.9136Z" fill="#105099"/>
<path d="M19.0004 25.1392H10.3149C9.41523 25.1392 8.68628 24.4053 8.68628 23.4996C8.68628 22.594 9.41523 21.8601 10.3149 21.8601H19.0004C19.9 21.8601 20.629 22.594 20.629 23.4996C20.629 24.4053 19.9 25.1392 19.0004 25.1392Z" fill="#105099"/>
</g>
<defs>
<clipPath id="clip0_450_116">
<rect width="38" height="47" fill="white"/>
</clipPath>
</defs>
</svg>
