<svg xmlns="http://www.w3.org/2000/svg" version="1.1" viewBox="242.27 508.01 1015.43 483.99">
  <defs>
    <style>
      .cls-1 {
        fill: #105099;
      }

      .cls-3 {
        fill: #d3d3d3;
      }
    </style>
  </defs>
  <!-- Generator: Adobe Illustrator 28.6.0, SVG Export Plug-In . SVG Version: 1.2.0 Build 709)  -->
  <g>
    <g id="Layer_1">
      <path class="cls-1" d="M623,564"/>
      <g>
        <path class="cls-1" d="M608.9,784.1c-31-59.9-78.3-104-163.4-97.7-17.3-28.4-91.4-174.8-91.4-174.8,0,0-29.1-7.9-42.9,0s-59.5,36.2-59.5,36.2c0,0-18.9,11-3.2,42.5,15.8,31.5,87.6,159.7,87.6,159.7,0,0-38.7,75-27.7,128.6s45.7,111.8,144.9,113.4l-72.5-115,50.4-92.9,113.4,11,58.3,113.4s36.9-64.6,5.8-124.4ZM309,595c-12.7,0-23-10.3-23-23s10.3-23,23-23,23,10.3,23,23-10.3,23-23,23Z"/>
        <rect class="cls-1" x="480.4" y="875.1" width="58.3" height="82.9" transform="translate(-406.9 406.8) rotate(-31.8)"/>
        <g>
          <path class="cls-1" d="M635.2,745.3h49.9c.9,0,1.6-.7,1.6-1.6v-15.2c0-.9-.7-1.6-1.6-1.6h-29.9v-19.2h27.7c.9,0,1.6-.7,1.6-1.6v-15c0-.9-.7-1.6-1.6-1.6h-27.7v-15.9h29.9c.9,0,1.6-.7,1.6-1.6v-15c0-.9-.7-1.6-1.6-1.6h-49.9c-.9,0-1.6.7-1.6,1.6v86.6c0,.9.7,1.6,1.6,1.6Z"/>
          <path class="cls-1" d="M802.8,655.5h-25c-.7,0-1.3.4-1.5,1.1l-20.4,62.1-19.2-62c-.2-.7-.8-1.1-1.5-1.1h-25c-.9,0-1.6.7-1.6,1.6v86.6c0,.9.7,1.6,1.6,1.6h16.4c.9,0,1.6-.7,1.6-1.6v-40.3c0-3.3-.2-9.1-.6-17.1l17.8,57.9c.2.7.8,1.1,1.5,1.1h16.8c.7,0,1.3-.4,1.5-1.1l19.4-58.9c-.2,5.5-.4,9-.4,10.7,0,2.5,0,4.8,0,6.7v41c0,.9.7,1.6,1.6,1.6h17.1c.9,0,1.6-.7,1.6-1.6v-86.6c0-.9-.7-1.6-1.6-1.6Z"/>
          <path class="cls-1" d="M831.8,745.3h18.4c.9,0,1.6-.7,1.6-1.6v-29.2h6.3c11.1,0,19.8-2.6,25.9-7.8,6.2-5.2,9.3-12.8,9.3-22.6s-3-16.6-8.8-21.4c-5.7-4.7-14.1-7.1-25-7.1h-27.7c-.9,0-1.6.7-1.6,1.6v86.6c0,.9.7,1.6,1.6,1.6ZM858.5,673.7c4.6,0,8,.9,10,2.7,2,1.7,3,4.5,3,8.3s-1.2,6.6-3.6,8.5c-2.5,2-6.4,3-11.7,3h-4.5v-22.6h6.8Z"/>
          <path class="cls-1" d="M985.7,744.4c.3-.5.2-1.1-.1-1.6-3.8-5.5-12-17.7-24.4-36.2,4.6-2.3,8.2-5.3,10.9-9.1,3-4.2,4.5-9.1,4.5-14.5,0-9.2-3.1-16.2-9.1-20.8-5.9-4.5-15-6.7-27.1-6.7h-25.2c-.9,0-1.6.7-1.6,1.6v86.6c0,.9.7,1.6,1.6,1.6h18.4c.9,0,1.6-.7,1.6-1.6v-31.6h7.3l20.2,32.5c.3.5.8.7,1.3.7h20.4c.6,0,1.1-.3,1.4-.8ZM935,673.7h4c5.6,0,9.7.8,12.3,2.4,2.3,1.4,3.5,3.9,3.5,7.4s-1.1,6.2-3.5,7.8c-2.5,1.7-6.5,2.6-11.9,2.6h-4.3v-20.2Z"/>
          <path class="cls-1" d="M1052.2,655.5h-49.9c-.9,0-1.6.7-1.6,1.6v86.6c0,.9.7,1.6,1.6,1.6h49.9c.9,0,1.6-.7,1.6-1.6v-15.2c0-.9-.7-1.6-1.6-1.6h-29.9v-19.2h27.7c.9,0,1.6-.7,1.6-1.6v-15c0-.9-.7-1.6-1.6-1.6h-27.7v-15.9h29.9c.9,0,1.6-.7,1.6-1.6v-15c0-.9-.7-1.6-1.6-1.6Z"/>
          <path class="cls-1" d="M1113.8,746.4c5.2,0,10.3-.4,15.3-1.1,5-.7,10.4-2,16-3.9.6-.2,1.1-.8,1.1-1.5v-44.9c0-.9-.7-1.6-1.6-1.6h-34.3c-.9,0-1.6.7-1.6,1.6v15.3c0,.9.7,1.6,1.6,1.6h14.8v15.2c-3.4.6-6.8.9-10.1.9-6.9,0-12-2.2-15.5-6.8-3.6-4.6-5.4-11.6-5.4-20.6s2.3-15.4,6.8-20.4c4.5-5,10.4-7.5,17.9-7.5s12.9,1.5,19,4.6c.4.2.8.2,1.3,0,.4-.2.7-.5.9-.9l6.1-14.7c.3-.8,0-1.7-.8-2.1-8.4-3.6-17.3-5.5-26.3-5.5-14.5,0-26.1,4.1-34.4,12.2-8.3,8.1-12.5,19.5-12.5,33.8s3.6,26.2,10.7,34.1c7.2,8,17.6,12,31.1,12Z"/>
          <path class="cls-1" d="M1161.5,745.3h19.8c.7,0,1.3-.5,1.5-1.1l5.9-19.5h29.2l5.9,19.5c.2.7.8,1.1,1.5,1.1h19.8c.5,0,1-.2,1.3-.7.3-.4.4-1,.2-1.4l-30.7-86.9c-.2-.6-.8-1.1-1.5-1.1h-22.4c-.7,0-1.3.4-1.5,1.1l-30.6,86.9c-.2.5,0,1,.2,1.4s.8.7,1.3.7ZM1194.3,706.1c4.2-13.6,7.2-23.6,9-29.9,0,0,0,.2,0,.3.7,2.4,3.8,12.3,9.2,29.7h-18.3Z"/>
          <path class="cls-1" d="M727.7,795.7h-25c-.7,0-1.3.4-1.5,1.1l-20.4,62.1-19.2-62c-.2-.7-.8-1.1-1.5-1.1h-25c-.9,0-1.6.7-1.6,1.6v86.6c0,.9.7,1.6,1.6,1.6h16.4c.9,0,1.6-.7,1.6-1.6v-40.3c0-3.3-.2-9.1-.6-17.1l17.8,57.9c.2.7.8,1.1,1.5,1.1h16.8c.7,0,1.3-.4,1.5-1.1l19.4-58.9c-.2,5.5-.4,9-.4,10.7,0,2.5,0,4.8,0,6.7v41c0,.9.7,1.6,1.6,1.6h17.1c.9,0,1.6-.7,1.6-1.6v-86.6c0-.9-.7-1.6-1.6-1.6Z"/>
          <path class="cls-1" d="M797,795.7h-49.9c-.9,0-1.6.7-1.6,1.6v86.6c0,.9.7,1.6,1.6,1.6h49.9c.9,0,1.6-.7,1.6-1.6v-15.2c0-.9-.7-1.6-1.6-1.6h-29.9v-19.2h27.7c.9,0,1.6-.7,1.6-1.6v-15c0-.9-.7-1.6-1.6-1.6h-27.7v-15.9h29.9c.9,0,1.6-.7,1.6-1.6v-15c0-.9-.7-1.6-1.6-1.6Z"/>
          <path class="cls-1" d="M872.4,863.9c-.4-.3-1-.4-1.4-.2-8.4,3-15.7,4.5-21.6,4.5-13.6,0-20.2-9-20.2-27.4s1.8-15.9,5.4-20.8c3.5-4.8,8.3-7.1,14.8-7.1s6,.5,9.1,1.6c3.2,1.1,6.4,2.5,9.6,4,.4.2.8.2,1.3,0,.4-.2.7-.5.9-.9l5.9-14.9c.3-.8,0-1.6-.8-2-8.7-4.2-17.4-6.3-26-6.3s-16,1.9-22.4,5.6c-6.4,3.8-11.3,9.2-14.7,16.2-3.4,7-5.1,15.1-5.1,24.3,0,14.6,3.5,26,10.4,33.9,7,8,17.1,12,30.1,12s17.1-1.5,24.4-4.6c.6-.2,1-.8,1-1.5v-15.4c0-.5-.2-1-.7-1.3Z"/>
          <path class="cls-1" d="M901,790.4h8.2c.3,0,.6,0,.8-.2,3.5-2.2,6.3-4.3,8.3-6.2,2.1,2,5,4.1,8.6,6.2.2.1.5.2.8.2h8.2c.9,0,1.6-.7,1.6-1.6v-1.1c0-.4-.2-.8-.5-1.1-1.9-1.8-3.9-4-5.9-6.3-2-2.3-3.4-4.2-4.2-5.5-.3-.5-.8-.8-1.4-.8h-14.3c-.6,0-1.1.3-1.4.8-1.7,2.9-5.1,6.8-10,11.8-.3.3-.5.7-.5,1.1v1.1c0,.9.7,1.6,1.6,1.6Z"/>
          <path class="cls-1" d="M931.1,796.4c-.2-.6-.8-1.1-1.5-1.1h-22.4c-.7,0-1.3.4-1.5,1.1l-30.6,86.9c-.2.5,0,1,.2,1.4s.8.7,1.3.7h19.8c.7,0,1.3-.5,1.5-1.1l5.9-19.5h29.2l5.9,19.5c.2.7.8,1.1,1.5,1.1h19.8c.5,0,1-.2,1.3-.7.3-.4.4-1,.2-1.4l-30.7-86.9ZM927.7,846.3h-18.3c4.2-13.6,7.2-23.6,9-29.9,0,0,0,.2,0,.3.7,2.4,3.8,12.3,9.2,29.7Z"/>
          <path class="cls-1" d="M1045.5,795.7h-16.5c-.9,0-1.6.7-1.6,1.6v41c0,3.8.2,9.9.6,18.2l-34.8-60c-.3-.5-.8-.8-1.4-.8h-23.2c-.9,0-1.6.7-1.6,1.6v86.6c0,.9.7,1.6,1.6,1.6h16.4c.9,0,1.6-.7,1.6-1.6v-40.7c0-4.1-.3-10.5-.8-19.2l34.9,60.7c.3.5.8.8,1.4.8h23.3c.9,0,1.6-.7,1.6-1.6v-86.6c0-.9-.7-1.6-1.6-1.6Z"/>
          <rect class="cls-1" x="1063.3" y="795.7" width="21.5" height="89.7" rx="1.6" ry="1.6"/>
          <path class="cls-1" d="M1165.4,800.7c-8.7-4.2-17.4-6.3-26-6.3s-16,1.9-22.4,5.6c-6.4,3.8-11.3,9.2-14.7,16.2-3.4,7-5.1,15.1-5.1,24.3,0,14.6,3.5,26,10.4,33.9,7,8,17.1,12,30.1,12s17.1-1.5,24.4-4.6c.6-.2,1-.8,1-1.5v-15.4c0-.5-.2-1-.7-1.3-.4-.3-1-.4-1.4-.2-8.4,3-15.7,4.5-21.6,4.5-13.6,0-20.2-9-20.2-27.4s1.8-15.9,5.4-20.8c3.5-4.8,8.3-7.1,14.8-7.1s6,.5,9.1,1.6c3.2,1.1,6.4,2.5,9.6,4,.4.2.8.2,1.3,0,.4-.2.7-.5.9-.9l5.9-14.9c.3-.8,0-1.6-.8-2Z"/>
          <path class="cls-1" d="M1246.7,806.3c-7.3-8-18-12-31.7-12s-24.4,4-31.8,11.9c-7.4,7.9-11.1,19.3-11.1,34.1s3.7,26.3,11.1,34.2c7.4,8,18.1,12.1,31.7,12.1s24.3-4.1,31.7-12.1c7.4-8,11.1-19.4,11.1-34.1s-3.7-26.2-11-34.1ZM1199.7,819.5c3.4-4.5,8.4-6.7,15.3-6.7,13.6,0,20.3,9.1,20.3,27.7s-6.7,27.6-20.4,27.6-11.8-2.2-15.2-6.7c-3.4-4.6-5.2-11.6-5.2-20.9s1.8-16.3,5.2-20.9Z"/>
        </g>
        <path class="cls-3" d="M316.8,509.4c29.5-8.8,128.7,177,128.7,177l-91.4-174.8s-23.6-6.3-37.4-2.2Z"/>
        <polygon class="cls-3" points="470.4 892 514.8 962 506.6 967.1 462.9 896.7 470.4 892"/>
      </g>
    </g>
  </g>
</svg>